<svg width="16" height="16" viewBox="0 0 16 16" fill="none" xmlns="http://www.w3.org/2000/svg">
<path d="M15.0605 11.3138C15.3535 11.431 15.5 11.6458 15.5 11.9583C15.5 12.0169 15.4902 12.0658 15.4707 12.1048L14.7676 15.1517C14.748 15.2494 14.6992 15.3373 14.6211 15.4154C14.5625 15.513 14.4844 15.5814 14.3867 15.6205C14.2891 15.679 14.1914 15.7083 14.0937 15.7083C10.3437 15.7083 7.14062 14.3802 4.48437 11.724C1.82812 9.06772 0.5 5.86459 0.5 2.11459C0.5 2.01694 0.519531 1.91928 0.558594 1.82162C0.617187 1.72397 0.685547 1.64584 0.763672 1.58725C0.861328 1.50912 0.958984 1.4603 1.05664 1.44077L4.10352 0.73764C4.14258 0.718109 4.19141 0.708344 4.25 0.708344C4.5625 0.708344 4.77734 0.854828 4.89453 1.1478L6.30078 4.42905C6.33984 4.50717 6.35937 4.59506 6.35937 4.69272C6.35937 4.90756 6.27148 5.09311 6.0957 5.24936L4.33789 6.68491C4.78711 7.66147 5.51953 8.65756 6.53516 9.67319C7.55078 10.6888 8.54687 11.4212 9.52344 11.8705L10.959 10.1126C11.1152 9.93686 11.3008 9.84897 11.5156 9.84897C11.6133 9.84897 11.7012 9.8685 11.7793 9.90756L15.0605 11.3138Z" fill="#D09960"/>
</svg>
