<svg width="20" height="20" viewBox="0 0 20 20" fill="none" xmlns="http://www.w3.org/2000/svg">
<path d="M17.207 8.30405C17.2656 8.24545 17.3242 8.23569 17.3828 8.27475C17.4609 8.31381 17.5 8.37241 17.5 8.45053V14.4271C17.5 14.8177 17.3633 15.1497 17.0898 15.4232C16.8164 15.6966 16.4844 15.8333 16.0937 15.8333H3.90625C3.51562 15.8333 3.18359 15.6966 2.91016 15.4232C2.63672 15.1497 2.5 14.8177 2.5 14.4271V8.45053C2.5 8.37241 2.5293 8.32358 2.58789 8.30405C2.66602 8.26498 2.73437 8.26498 2.79297 8.30405C3.4375 8.79233 4.94141 9.89584 7.30469 11.6146C7.34375 11.6537 7.4707 11.7611 7.68555 11.9369C7.91992 12.1126 8.10547 12.2494 8.24219 12.347C8.37891 12.4251 8.55469 12.5326 8.76953 12.6693C8.98437 12.7865 9.18945 12.8744 9.38477 12.933C9.59961 12.9915 9.80469 13.0208 10 13.0208C10.1758 13.0208 10.3516 13.0013 10.5273 12.9622C10.7031 12.9037 10.8691 12.8451 11.0254 12.7865C11.1816 12.7083 11.3477 12.6107 11.5234 12.4935C11.6992 12.3763 11.8457 12.2787 11.9629 12.2005C12.0801 12.1029 12.2168 11.9955 12.373 11.8783C12.5293 11.7611 12.6367 11.6732 12.6953 11.6146C15 9.95444 16.5039 8.85092 17.207 8.30405ZM10 12.0833C9.84375 12.0833 9.64844 12.0345 9.41406 11.9369C9.19922 11.8197 9.02344 11.722 8.88672 11.6439C8.75 11.5462 8.54492 11.3997 8.27148 11.2044C8.01758 10.9896 7.88086 10.8822 7.86133 10.8822C5.47852 9.14389 3.7793 7.88412 2.76367 7.10287C2.58789 6.96616 2.5 6.78061 2.5 6.54623V5.98959C2.5 5.59897 2.63672 5.26694 2.91016 4.9935C3.18359 4.72006 3.51562 4.58334 3.90625 4.58334H16.0937C16.4844 4.58334 16.8164 4.72006 17.0898 4.9935C17.3633 5.26694 17.5 5.59897 17.5 5.98959V6.54623C17.5 6.78061 17.4121 6.96616 17.2363 7.10287C16.2793 7.84506 14.5801 9.10483 12.1387 10.8822C12.1191 10.8822 11.9727 10.9896 11.6992 11.2044C11.4453 11.3997 11.25 11.5462 11.1133 11.6439C10.9766 11.722 10.791 11.8197 10.5566 11.9369C10.3418 12.0345 10.1562 12.0833 10 12.0833Z" fill="#D09960"/>
</svg>
